<svg preserveAspectRatio="none" width="100%" height="100%" overflow="visible" style="display: block;" viewBox="0 0 133 133" fill="none" xmlns="http://www.w3.org/2000/svg">
<g id="Ellipse 3" filter="url(#filter0_d_19_5)">
<path d="M117.2 66.2C117.2 77.8037 113.243 89.0605 105.982 98.1119C98.7216 107.163 88.5913 113.468 77.2639 115.985C65.9365 118.503 54.0894 117.082 43.6784 111.958C33.2674 106.834 24.9151 98.3123 20.0004 87.8008C15.0857 77.2893 13.9025 65.416 16.6461 54.1413C19.3898 42.8667 25.8962 32.8646 35.0912 25.7866C44.2862 18.7086 55.62 14.9779 67.2214 15.2102C78.8228 15.4426 89.9981 19.6243 98.9023 27.0648L88.3163 39.7331C82.2945 34.7011 74.7367 31.8731 66.8908 31.7159C59.0448 31.5588 51.3798 34.0819 45.1613 38.8687C38.9428 43.6555 34.5426 50.4198 32.6871 58.0448C30.8315 65.6698 31.6317 73.6996 34.9555 80.8085C38.2793 87.9174 43.9279 93.6802 50.9688 97.1457C58.0097 100.611 66.0218 101.572 73.6825 99.8696C81.3431 98.1672 88.1942 93.9033 93.1045 87.7818C98.0149 81.6604 100.691 74.0475 100.691 66.2H117.2Z" fill="var(--fill-0, white)"/>
</g>
<defs>
<filter id="filter0_d_19_5" x="-2.33293e-07" y="-1.74939e-07" width="132.4" height="132.4" filterUnits="userSpaceOnUse" color-interpolation-filters="sRGB">
<feFlood flood-opacity="0" result="BackgroundImageFix"/>
<feColorMatrix in="SourceAlpha" type="matrix" values="0 0 0 0 0 0 0 0 0 0 0 0 0 0 0 0 0 0 127 0" result="hardAlpha"/>
<feOffset/>
<feGaussianBlur stdDeviation="7.6"/>
<feComposite in2="hardAlpha" operator="out"/>
<feColorMatrix type="matrix" values="0 0 0 0 1 0 0 0 0 1 0 0 0 0 1 0 0 0 0.25 0"/>
<feBlend mode="normal" in2="BackgroundImageFix" result="effect1_dropShadow_19_5"/>
<feBlend mode="normal" in="SourceGraphic" in2="effect1_dropShadow_19_5" result="shape"/>
</filter>
</defs>
</svg>
